<?xml version="1.0" encoding="UTF-8"?>
<svg width="41px" height="46px" viewBox="0 0 41 46" version="1.1" xmlns="http://www.w3.org/2000/svg" xmlns:xlink="http://www.w3.org/1999/xlink">
    <title>Page 1</title>
    <g id="Page-1" stroke="none" stroke-width="1" fill="none" fill-rule="evenodd">
        <g id="A5-Copy" transform="translate(-282.000000, -58.000000)">
            <path d="M286.977972,62.75 L289.643972,72.156 L293.096972,84.321 L294.819972,90.403 L297.688972,100.508 C297.937972,101.386 298.832972,101.914 299.718972,101.699 C304.047972,100.649 316.097972,96.719 322.362972,84.549 C322.778972,83.74 322.471972,82.742 321.677972,82.295 L319.289972,80.949 L310.860972,76.203 L302.725972,71.621 L297.133972,68.469 L286.977972,62.75" id="Fill-1357" fill="#78C6EC"></path>
            <path d="M290.316972,65.68 L298.706972,93.091 C299.490972,95.651 302.202972,97.111 304.758972,96.315 C309.736972,94.766 317.239972,91.114 320.130972,82.823 L290.316972,65.68" id="Fill-1358" fill="#78C6EC"></path>
            <path d="M292.632972,68.133 L300.392972,90.487 C301.298972,93.099 304.149972,94.522 306.760972,93.612 C310.799972,92.203 316.147972,89.206 317.877972,82.998 L292.632972,68.133" id="Fill-1359" fill="#78C6EC"></path>
            <polyline id="Fill-1360" fill="#F8CA78" points="293.096972 84.321 294.819972 90.403 297.563972 89.346 299.709972 88.514 316.333972 82.09 317.844972 81.508 319.289972 80.949 310.860972 76.203 309.612972 76.776 308.315972 77.367 297.543972 82.285 295.664972 83.144 293.096972 84.321"></polyline>
            <polyline id="Fill-1361" fill="#F8CA78" points="289.643972 72.156 290.861972 76.443 293.311972 75.449 294.941972 74.784 300.254972 72.62 302.725972 71.621 297.133972 68.469 296.073972 68.992 294.992972 69.521 293.388972 70.316 291.953972 71.017 289.643972 72.156"></polyline>
            <polyline id="Fill-1362" fill="#F8CA78" points="295.664972 83.144 297.563972 89.346 299.709972 88.514 316.333972 82.09 317.844972 81.508 309.612972 76.776 308.315972 77.367 297.543972 82.285 295.664972 83.144"></polyline>
            <polyline id="Fill-1363" fill="#F8CA78" points="291.953972 71.017 293.311972 75.449 294.941972 74.784 300.254972 72.62 301.512972 72.112 296.073972 68.992 294.992972 69.521 293.388972 70.316 291.953972 71.017"></polyline>
            <polyline id="Fill-1364" fill="#F8CA78" points="297.543972 82.285 299.709972 88.514 316.333972 82.09 308.315972 77.367 297.543972 82.285"></polyline>
            <polyline id="Fill-1365" fill="#F8CA78" points="293.388972 70.316 294.941972 74.784 300.254972 72.62 294.992972 69.521 293.388972 70.316"></polyline>
            <path d="M289.137972,64.477 C289.053972,64.874 288.760972,65.182 288.357972,65.229 C287.136972,65.37 285.962972,65.924 285.090972,66.792 C284.734972,67.146 284.394972,67.57 283.905972,67.685 C283.336972,67.819 282.743972,67.47 282.405972,66.993 C281.847972,66.206 281.866972,65.056 282.451972,64.288 C283.036972,63.52 284.140972,63.196 285.047972,63.525 C284.124972,63.365 283.305972,62.684 283.002972,61.798 C282.700972,60.911 282.918972,59.868 283.550972,59.177 C284.182972,58.485 285.201972,58.175 286.111972,58.396 C286.587972,58.512 287.042972,58.777 287.302972,59.192 C287.725972,59.869 287.543972,60.745 287.348972,61.52 C287.250972,61.906 287.153972,62.291 287.056972,62.676 C287.499972,61.777 288.326972,61.029 289.275972,60.708 C289.837972,60.519 290.552972,60.505 290.921972,60.968 C291.260972,61.393 291.142972,62.039 290.832972,62.487 C290.523972,62.933 290.062972,63.248 289.668972,63.623 C289.420972,63.86 289.212972,64.125 289.137972,64.477" id="Fill-1366" fill="#00A28F"></path>
            <path d="M289.900972,62.747 C290.161972,62.501 290.474972,62.232 290.47299,61.873 C290.471972,61.647 290.333972,61.436 290.146972,61.309 C289.958972,61.182 289.728972,61.132 289.502972,61.127 C288.923972,61.114 288.367972,61.384 287.925972,61.758 C287.482972,62.132 287.291972,62.557 286.968972,63.098 C286.666972,62.852 286.591972,62.392 286.686972,62.015 C286.779972,61.639 286.971972,61.288 287.030972,60.905 C287.146972,60.166 286.703972,59.385 286.024972,59.072 C285.344972,58.759 284.484972,58.918 283.937972,59.428 C283.390972,59.938 283.169972,60.761 283.354972,61.487 C283.420972,61.751 283.537972,62.004 283.695972,62.226 C284.202972,62.938 285.068972,63.284 285.886972,63.592 C285.353972,63.521 284.795972,63.489 284.268972,63.597 C283.741972,63.706 283.232972,63.959 282.887972,64.371 C282.574972,64.746 282.413972,65.243 282.445972,65.729 C282.477972,66.199 282.731972,66.693 283.179972,66.838 C283.526972,66.951 283.912972,66.829 284.217972,66.626 C284.521972,66.423 284.766972,66.145 285.036972,65.9 C286.041972,64.992 287.269972,64.558 288.613972,64.721 C288.878972,63.973 289.323972,63.291 289.900972,62.747 Z" id="Fill-1367" fill="#00A28F"></path>
            <path d="M311.303972,84.206 C312.078972,85.365 313.526972,85.755 314.538972,85.078 C315.550972,84.401 315.742972,82.913 314.968972,81.756 C314.193972,80.598 312.745972,80.207 311.733972,80.884 C310.722972,81.561 310.528972,83.049 311.303972,84.206" id="Fill-1368" fill="#2C2A23"></path>
            <path d="M311.964972,83.395 C312.504972,84.203 313.501972,84.486 314.190972,84.025 C314.878972,83.565 314.998972,82.536 314.457972,81.727 C313.916972,80.919 312.920972,80.637 312.232972,81.098 C311.543972,81.558 311.423972,82.587 311.964972,83.395" id="Fill-1369" fill="#1A1A16"></path>
            <path d="M312.413972,82.504 C312.727972,82.972 313.359972,83.098 313.828972,82.785 C314.296972,82.472 314.422972,81.838 314.108972,81.37 C313.796972,80.902 313.162972,80.776 312.694972,81.089 C312.226972,81.402 312.101972,82.036 312.413972,82.504" id="Fill-1370" fill="#FFFFFE"></path>
            <path d="M315.269972,84.652 C315.810972,85.46 316.904972,85.678 317.713972,85.137 C318.522972,84.596 318.739972,83.501 318.198972,82.692 C317.657972,81.884 316.563972,81.666 315.754972,82.207 C314.945972,82.748 314.728972,83.843 315.269972,84.652" id="Fill-1371" fill="#F37394"></path>
            <path d="M311.725972,88.311 C311.052972,88.9 309.894972,89.801 308.650972,90.257 C308.166972,90.434 308.020972,91.062 308.385972,91.426 C308.849972,91.889 309.573972,92.34 310.607972,92.278 C311.591972,92.219 312.508972,91.672 312.921972,90.778 C313.187972,90.204 313.296972,89.439 312.843972,88.534 C312.632972,88.112 312.079972,88 311.725972,88.311" id="Fill-1372" fill="#2C2A23"></path>
            <path d="M312.441972,90.125 C312.677972,90.593 312.300972,91.258 311.600972,91.611 C310.899972,91.963 310.141972,91.87 309.905972,91.403 C309.670972,90.935 310.046972,90.27 310.747972,89.918 C311.447972,89.565 312.206972,89.658 312.441972,90.125" id="Fill-1373" fill="#E46D67"></path>
            <path d="M312.111972,90.12 C312.289972,90.473 312.005972,90.974 311.477972,91.24 C310.948972,91.506 310.376972,91.436 310.198972,91.084 C310.021972,90.731 310.305972,90.229 310.833972,89.963 C311.361972,89.697 311.934972,89.767 312.111972,90.12" id="Fill-1374" fill="#E47C75"></path>
            <path d="M307.419972,89.238 C307.419972,89.238 306.981972,88.818 306.197972,88.773 C304.657972,88.686 303.305972,89.942 303.256972,91.484 C303.244972,91.853 303.293972,92.274 303.433972,92.747 L301.680972,92.818 C301.680972,92.818 300.811972,90.123 303.174972,88.501 C303.649972,88.175 304.201972,87.956 304.775972,87.913 C305.545972,87.855 306.587972,88.056 307.419972,89.238" id="Fill-1375" fill="#1A1A16"></path>
            <path d="M301.696972,95.82 C302.310972,96.736 303.550972,96.982 304.467972,96.369 C305.383972,95.756 305.629972,94.516 305.016972,93.599 C304.403972,92.683 303.163972,92.437 302.246972,93.05 C301.330972,93.663 301.084972,94.903 301.696972,95.82" id="Fill-1376" fill="#F37394"></path>
            <path d="M294.862972,97.78 C294.862972,97.78 293.676972,102.431 298.412972,103.68 C298.412972,103.68 292.856972,103.622 294.862972,97.78" id="Fill-1377" fill="#FFFFFE"></path>
            <path d="M293.824972,99.81 C293.824972,99.81 293.386972,103.212 296.063972,103.753 C296.063972,103.753 292.691972,103.53 293.824972,99.81" id="Fill-1378" fill="#FFFFFE"></path>
            <path d="M289.529972,58 C289.529972,58 292.894972,59.216 292.108972,63.275 C292.108972,63.275 294.191972,58.94 289.529972,58" id="Fill-1379" fill="#FFFFFE"></path>
            <path d="M291.548972,58.061 C291.548972,58.061 293.429972,59.293 293.233972,61.306 C293.233972,61.306 293.953972,58.827 291.548972,58.061" id="Fill-1380" fill="#FFFFFE"></path>
            <path d="M296.970708,85.2893815 L294.151296,77.3733925 C294.049741,77.0890944 293.716527,76.9338394 293.406919,77.0270932 C293.097311,77.119843 292.928234,77.4258163 293.029241,77.7101144 L295.849201,85.6266075 C295.950208,85.9109056 296.283422,86.0661606 296.59303,85.9729068 C296.903187,85.880157 297.071715,85.5741837 296.970708,85.2893815" id="Fill-31" fill="#FFFFFE"></path>
            <path d="M297.114232,69.9070772 L299.259668,72.8273003 C299.41987,73.0457521 299.690187,73.058809 299.863507,72.855925 C300.03643,72.6530411 300.046368,72.3115533 299.885768,72.0931015 L297.740332,69.1728783 C297.58013,68.9539243 297.309416,68.9413696 297.136493,69.1442536 C296.96357,69.3471375 296.953632,69.6886254 297.114232,69.9070772" id="Fill-30" fill="#FFFFFE" transform="translate(298.500000, 71.000000) rotate(-15.000000) translate(-298.500000, -71.000000) "></path>
            <path d="M303.114232,74.9070772 L305.259668,77.8273003 C305.41987,78.0457521 305.690187,78.058809 305.863507,77.855925 C306.03643,77.6530411 306.046368,77.3115533 305.885768,77.0931015 L303.740332,74.1728783 C303.58013,73.9539243 303.309416,73.9413696 303.136493,74.1442536 C302.96357,74.3471375 302.953632,74.6886254 303.114232,74.9070772" id="Fill-30" fill="#FFFFFE" transform="translate(304.500000, 76.000000) rotate(-15.000000) translate(-304.500000, -76.000000) "></path>
        </g>
    </g>
</svg>