<?xml version="1.0" encoding="UTF-8"?>
<svg width="214px" height="83px" viewBox="0 0 214 83" version="1.1" xmlns="http://www.w3.org/2000/svg" xmlns:xlink="http://www.w3.org/1999/xlink">
    <title>Page 1</title>
    <g id="Page-1" stroke="none" stroke-width="1" fill="none" fill-rule="evenodd">
        <g id="A5" transform="translate(-108.000000, -56.000000)" fill="#363D61">
            <path d="M296.270242,122.619784 C295.908802,121.512701 296.582833,119.641922 297.456621,119.679094 C298.058823,119.700465 298.677699,119.944381 299.217599,120.248469 C301.317935,121.446695 303.453553,122.588595 305.456986,123.993258 C310.59319,127.556932 314.975913,130.147571 320.066596,133.800058 C320.301008,133.96065 320.55242,134.134522 320.730965,134.381061 C321.219148,135.06733 321.333497,135.876828 320.907409,136.780821 C320.49021,137.670472 319.708507,138.891603 318.987441,138.646736 C318.35913,138.41924 317.772957,138.011806 317.204862,137.600548 C311.093418,133.274361 305.676341,130.045524 299.580607,125.679022 C298.639436,125.007818 297.756051,124.1881 296.867755,123.387083 C296.60333,123.148995 296.410704,122.800052 296.270242,122.619784" id="Fill-62"></path>
            <path d="M298.23618,103.114818 C298.054126,102.268066 298.258193,101.849762 298.762345,101.761496 C299.273948,101.669046 299.806197,101.653354 300.319297,101.717044 C303.987631,102.188473 313.295387,104.158287 314.311401,104.433381 C315.598713,104.795147 316.882711,105.165084 318.149384,105.629158 C319.002198,105.946201 319.320133,106.720593 319.106032,107.554733 C318.895748,108.381996 318.250219,108.844684 317.415057,108.623434 C315.064707,107.995626 312.72734,107.294264 310.37185,106.659876 C308.023248,106.023199 305.663175,105.42215 303.308522,104.826735 C301.964486,104.485779 300.613092,104.199442 299.280269,103.808803 C298.863634,103.683053 298.498546,103.297223 298.23618,103.114818" id="Fill-63"></path>
            <path d="M290.644715,71.678548 C290.088417,71.052309 290.044631,70.4902591 290.393687,69.973882 C290.747087,69.4472802 291.154013,68.9734698 291.586255,68.5914658 C294.677136,65.8664366 297.617182,62.74342 301.075949,60.9948452 C302.028389,60.513747 302.898843,59.6716993 303.82512,59.0509172 C305.003629,58.2766304 306.186598,57.5121518 307.400111,56.8496871 C308.219528,56.409294 308.845518,56.8508033 309.087028,57.8077516 C309.326176,58.7534856 309.049955,59.7384062 308.287736,60.2547223 C306.150675,61.6979285 303.984928,63.0625562 301.838575,64.5046772 C299.696493,65.9402797 297.561908,67.4147331 295.436053,68.8924762 C294.221262,69.734039 293.029105,70.6335571 291.797825,71.4203589 C291.410757,71.6660571 290.937419,71.6222314 290.644715,71.678548" id="Fill-64"></path>
            <path d="M288.534264,90.1252818 C288.041875,88.9145741 288.020068,86.5997788 288.650955,86.2185434 C289.292359,85.826929 289.984939,85.5473902 290.674002,85.3953427 C295.614668,84.3347667 308.38194,82.8344936 309.792814,82.759753 C311.587889,82.6888368 313.379629,82.6344833 315.171976,82.7292901 C316.381619,82.8022137 317.198937,85.4071949 317.169877,86.7889902 C317.144376,88.1567803 316.437724,89.1805264 315.278594,89.2498346 C312.015667,89.4267953 308.750651,89.4879839 305.474809,89.660653 C302.211255,89.8263063 298.944058,90.0510631 295.686089,90.2842896 C293.824598,90.4133114 291.973635,90.6283433 290.10775,90.6782129 C289.525609,90.6920039 288.93181,90.2763657 288.534264,90.1252818" id="Fill-65"></path>
            <path d="M142.964173,99.5285667 C143.463683,100.529176 143.008049,102.491947 142.120532,102.63783 C141.509186,102.742668 140.852923,102.632545 140.269075,102.450136 C137.998875,101.722101 135.699896,101.056283 133.502905,100.108245 C127.8763,97.7157288 123.126446,96.1078194 117.531938,93.6188042 C117.27682,93.5097023 117.002836,93.3947363 116.791156,93.1913178 C116.213535,92.6271053 115.999242,91.8636469 116.319504,90.8949497 C116.635473,89.9421047 117.277655,88.5934554 118.035861,88.6827648 C118.700068,88.7698457 119.342645,89.0438188 119.966631,89.3266486 C126.674751,92.2606126 132.546742,94.2693953 139.242089,97.2442349 C140.277669,97.7003772 141.269087,98.3133142 142.265602,98.9074268 C142.562885,99.0842815 142.797825,99.3843524 142.964173,99.5285667" id="Fill-66"></path>
            <path d="M130.021635,112.428352 C130.316989,113.322756 130.161218,113.833226 129.66069,114.045384 C129.14945,114.264169 128.610349,114.401804 128.078773,114.445805 C124.278489,114.758356 114.542405,114.690781 113.473701,114.614528 C112.11659,114.507965 110.758453,114.389203 109.410028,114.162621 C108.501291,114.005359 108.078007,113.220053 108.187578,112.249645 C108.29727,111.28515 108.896625,110.626844 109.777219,110.681741 C112.252057,110.844492 114.722257,111.090535 117.203643,111.255223 C119.679302,111.427732 122.161235,111.558716 124.635425,111.682511 C126.047947,111.755645 127.461682,111.767285 128.870234,111.89592 C129.312358,111.940633 129.734333,112.286136 130.021635,112.428352" id="Fill-67"></path>
            <path d="M145.078699,84.6774872 C145.055928,85.6011913 145.595767,87.0077488 144.293466,86.6090477 C143.815115,86.4835043 143.336273,86.2720985 142.892211,85.9904241 C139.712255,83.9577049 131.83424,77.2273762 130.985058,76.5194104 C129.915682,75.6107752 128.847286,74.694783 127.814893,73.6934129 C127.121978,73.0131927 127.006363,72.104024 127.379877,71.3644903 C127.750207,70.627749 128.42695,70.4410307 129.126967,71.018073 C131.093532,72.6458563 133.029725,74.3395219 134.997759,75.9748536 C136.960649,77.6107973 138.939704,79.21489 140.914351,80.8098533 C142.042511,81.7230788 143.18904,82.5853656 144.29687,83.5405915 C144.642226,83.8446302 144.884467,84.3849116 145.078699,84.6774872" id="Fill-68"></path>
            <path d="M118.717551,126.311914 C121.373354,125.378647 124.311012,124.249184 127.284529,123.309784 C129.800154,122.523775 126.637788,123.395942 129.171609,122.777979 C129.728577,122.637624 130.324157,122.654969 130.87519,122.773076 C131.582915,122.934023 132.159789,123.47815 132.170628,124.625466 C132.180823,125.793077 131.599439,126.327278 130.888627,126.593652 C130.534683,126.732383 130.163433,126.772176 129.80875,126.869583 C126.094854,127.852278 128.077951,127.392224 124.36781,128.367146 C122.717864,128.801022 121.061655,129.201673 119.408873,129.605229 C119.204033,129.657751 118.993585,129.655689 118.784185,129.668603 C118.083738,129.704012 117.326877,129.711419 117.187497,128.476141 C117.050538,127.260135 117.764373,126.86275 118.717551,126.311914" id="Fill-69"></path>
            <path d="M135.1922,122.766514 C137.170687,122.119516 138.46739,121.565397 138.913268,121.698444 C139.486863,121.88014 139.94516,122.388473 140.138562,123.38 C140.522411,125.348938 137.357881,125.414687 136.107793,125.655882 C135.951927,125.691759 135.784203,125.674944 135.622263,125.672394 C135.078155,125.6609 134.481764,125.615699 134.231232,124.543803 C133.988765,123.484785 134.507261,123.185184 135.1922,122.766514" id="Fill-70"></path>
        </g>
    </g>
</svg>