<svg width="1440px" height="257px" viewBox="0 0 1440 257" version="1.1" xmlns="http://www.w3.org/2000/svg" xmlns:xlink="http://www.w3.org/1999/xlink">
    <g id="Homepage" stroke="none" stroke-width="1" fill="none" fill-rule="evenodd">
        <g id="1440_Poppi_HP" transform="translate(0.000000, -2262.000000)" fill="#57BABC">
            <g id="Group-3-Copy" transform="translate(-206.000000, 2260.000000)">
                <path d="M1592.00099,228.213127 L1599.09669,233.960487 C1596.66729,232.095676 1594.3174,230.174063 1592.00099,228.213127 L1592.00099,228.213127 Z M380.260714,106.524102 L382.558292,108.48329 C381.789294,107.834014 381.023434,107.181243 380.260714,106.524102 L380.260714,106.524102 Z M44.3016198,50.8209301 L45.7067416,51.9359722 C44.8027764,51.4317565 43.8841636,50.9336577 42.9446257,50.4477929 L44.3016198,50.8209301 Z M580.275575,98.2923644 C580.241048,98.2958598 580.204429,98.2984814 580.168857,98.3011029 L580.208614,98.2914905 L580.275575,98.2923644 Z M640.764868,107.13755 C639.703964,106.690135 638.612719,106.259323 637.503688,105.83725 L639.624449,106.312628 L640.764868,107.13755 Z M1030.31529,191.942798 C1029.21777,191.651803 1028.13489,191.35207 1027.08236,191.037481 L1030.31529,191.942798 Z M1352.84778,225.536501 C1350.28864,225.264732 1347.82994,224.943152 1345.46121,224.57351 L1352.84778,225.536501 Z M1497.77203,187.851397 C1497.73122,187.851397 1497.69147,187.852271 1497.65066,187.852271 L1497.72913,187.84528 L1497.77203,187.851397 Z M0,-9.09494702e-13 L0,38.6044024 L0.355727056,38.7031482 L0,41.2084977 C37.2446227,44.9022933 53.6206224,59.203845 70.9581313,74.3442999 C87.9158493,89.1535627 105.450054,104.467041 143.814171,108.271817 C182.177242,112.07834 203.519819,100.619447 224.158265,89.5398078 C245.259157,78.2111192 265.187196,67.5089866 302.434958,71.2054037 C339.67958,74.8991994 356.05558,89.1998772 373.393089,104.341206 C390.350807,119.150469 407.885012,134.463074 446.249129,138.268723 C484.610107,142.070003 505.954776,130.615479 526.593223,119.53584 C547.694115,108.207151 567.6232,97.5058926 604.870962,101.201436 C642.113492,104.895232 658.489492,119.196783 675.825954,134.337238 C692.783672,149.146501 710.317877,164.459106 748.680948,168.264755 C787.04088,172.066909 808.385549,160.612385 829.025042,149.531872 C850.125934,138.204058 870.060251,127.507168 907.301734,131.196594 C944.546357,134.891264 960.922357,149.192815 978.259866,164.33327 C995.217584,179.142533 1012.75179,194.456012 1051.11591,198.261661 C1089.48107,202.065563 1110.8226,190.608417 1131.46,179.528778 C1152.56194,168.20009 1172.49625,157.501452 1209.73774,161.1935 C1246.98236,164.887296 1263.35941,179.188848 1280.69692,194.330176 C1297.65568,209.139439 1315.19093,224.452918 1353.55609,228.257693 C1391.9223,232.064217 1413.2607,220.605323 1433.90019,209.52481 C1455.00108,198.196122 1474.92493,187.493989 1512.17688,191.190406 C1549.42464,194.884202 1565.80169,209.186628 1583.1392,224.327082 C1600.09901,239.136345 1617.63531,254.449824 1656.00151,258.2546 C1661.13654,258.764058 1665.96501,259 1670.53087,259 C1700.06668,259 1718.47242,249.120167 1736.34979,239.52259 C1757.45173,228.194776 1777.385,217.493517 1814.62963,221.188186 L1815,218.585839 L1815,-9.09494702e-13 L0,-9.09494702e-13 Z" id="Fill-1" transform="translate(907.500000, 129.500000) scale(-1, 1) rotate(-180.000000) translate(-907.500000, -129.500000) "></path>
            </g>
        </g>
    </g>
</svg>