<?xml version="1.0" encoding="UTF-8"?>
<svg width="416px" height="339px" viewBox="0 0 416 339" version="1.1" xmlns="http://www.w3.org/2000/svg" xmlns:xlink="http://www.w3.org/1999/xlink">
    <title>Fill 6</title>
    <defs>
        <path d="M474.798111,249.207261 C473.179781,228.577268 460.651466,211.347907 449.864588,193.768958 C438.562571,175.351216 430.829485,155.742927 425.993618,135.158392 C422.058947,118.409578 418.822287,100.273237 406.819869,86.4304375 C395.566855,73.4524068 378.40825,68.3752704 360.900641,67.3394956 C345.914949,64.5222315 329.989813,66.1402914 316.094164,72.2759311 C306.661473,76.4417589 298.364243,82.3511949 289.279362,87.0592621 C284.71481,89.4241189 279.937508,91.4794337 274.849449,92.7349183 C269.193659,94.1300214 263.323924,94.4655389 257.487656,94.1819725 C245.351373,93.5931935 233.584414,90.4837046 221.633391,88.7336023 C211.39273,87.234597 201.174779,87.0008172 190.950851,88.715203 C171.707779,91.9404996 153.590607,101.342564 141.119662,115.040334 C134.088172,122.765893 128.793339,131.679834 127.497718,141.729122 C126.18895,151.871489 128.660669,162.041997 130.829997,171.939761 C133.0555,182.092951 135.058692,192.436629 133.041157,202.765155 C131.149121,212.446456 126.400505,221.684008 119.249492,229.102191 C111.929954,236.694625 102.552243,242.278285 94.2920651,248.947506 C86.8087811,254.990066 80.6533886,262.153905 76.2238964,270.310225 C67.5238766,286.329559 65.2672977,304.847957 68.2422049,322.390107 C69.8892206,332.101713 73.086439,341.951856 80.187252,349.594077 C86.258979,356.130173 94.6864883,360.456183 103.497664,363.243142 C124.510859,369.889635 147.665892,368.672031 169.571918,369.441556 C181.906607,369.8734 194.295082,370.76198 206.295109,373.522964 C217.878004,376.188704 228.779622,380.666238 239.691998,384.991166 C260.022722,393.048996 283.364209,401.269173 305.604897,394.484145 C324.354342,388.765196 336.138034,373.505647 350.189062,361.891332 C358.008204,355.429916 366.892288,350.602794 376.616613,346.856904 C386.764046,342.947585 397.336979,340.035077 407.544173,336.256718 C426.624695,329.190288 443.821547,318.281642 456.352253,303.32947 C469.211644,287.986582 476.313653,268.518995 474.798111,249.207261" id="path-1"></path>
        <filter x="-1.7%" y="-1.5%" width="103.4%" height="104.2%" filterUnits="objectBoundingBox" id="filter-2">
            <feOffset dx="0" dy="2" in="SourceAlpha" result="shadowOffsetOuter1"></feOffset>
            <feGaussianBlur stdDeviation="2" in="shadowOffsetOuter1" result="shadowBlurOuter1"></feGaussianBlur>
            <feComposite in="shadowBlurOuter1" in2="SourceAlpha" operator="out" result="shadowBlurOuter1"></feComposite>
            <feColorMatrix values="0 0 0 0 0   0 0 0 0 0   0 0 0 0 0  0 0 0 0.5 0" type="matrix" in="shadowBlurOuter1"></feColorMatrix>
        </filter>
        <filter x="-1.1%" y="-0.8%" width="102.2%" height="102.7%" filterUnits="objectBoundingBox" id="filter-3">
            <feOffset dx="0" dy="1" in="SourceAlpha" result="shadowOffsetInner1"></feOffset>
            <feComposite in="shadowOffsetInner1" in2="SourceAlpha" operator="arithmetic" k2="-1" k3="1" result="shadowInnerInner1"></feComposite>
            <feColorMatrix values="0 0 0 0 0   0 0 0 0 0   0 0 0 0 0  0 0 0 0.5 0" type="matrix" in="shadowInnerInner1"></feColorMatrix>
        </filter>
    </defs>
    <g id="Page-1" stroke="none" stroke-width="1" fill="none" fill-rule="evenodd">
        <g id="A3-Copy" transform="translate(-63.000000, -64.000000)">
            <g id="Fill-6">
                <use fill="black" fill-opacity="1" filter="url(#filter-2)" xlink:href="#path-1"></use>
                <use fill-opacity="1" fill="#ff4c71" fill-rule="evenodd" xlink:href="#path-1"></use>
                <use fill="black" fill-opacity="1" filter="url(#filter-3)" xlink:href="#path-1"></use>
            </g>
        </g>
    </g>
</svg>