<?xml version="1.0" encoding="UTF-8"?>
<svg width="1166px" height="985px" viewBox="0 0 1166 985" version="1.1" xmlns="http://www.w3.org/2000/svg" xmlns:xlink="http://www.w3.org/1999/xlink">
    <title>Page 1</title>
    <g id="Page-1" stroke="none" stroke-width="1" fill="none" fill-rule="evenodd">
        <g id="133073-OSBDW7-868" transform="translate(-417.000000, -825.000000)">
            <path d="M1000.01,1546.96 C1272.7,1546.96 1501.57,1591.29 1564.83,1651.13 L1582.21,1651.13 L1582.21,1671.93 C1582.21,1747.95 1321.55,1809.58 1000.01,1809.58 C678.467,1809.58 417.807,1747.95 417.807,1671.93 L417.807,1651.13 L435.188,1651.13 C498.446,1591.29 727.317,1546.96 1000.01,1546.96" id="Fill-183" fill="#BDBDB8"></path>
            <path d="M1000.01,1788.77 C1320.67,1788.77 1582.21,1726.94 1582.21,1651.12 C1582.21,1575.31 1320.67,1513.48 1000.01,1513.48 C679.344,1513.48 417.809,1575.31 417.809,1651.12 C417.809,1726.94 679.344,1788.77 1000.01,1788.77" id="Fill-184" fill="#FFFFFE"></path>
            <path d="M1000.01,1763.4 C1261.57,1763.4 1474.9,1712.96 1474.9,1651.12 C1474.9,1589.28 1261.57,1538.85 1000.01,1538.85 C738.446,1538.85 525.113,1589.28 525.113,1651.12 C525.113,1712.96 738.446,1763.4 1000.01,1763.4" id="Fill-185" fill="#D9D8D2"></path>
            <path d="M1000.01,1549.48 C1237.46,1549.48 1429.95,1594.99 1429.95,1651.13 C1429.95,1707.26 1237.46,1752.77 1000.01,1752.77 C762.558,1752.77 570.066,1707.26 570.066,1651.13 C570.066,1594.99 762.558,1549.48 1000.01,1549.48" id="Fill-186" fill="#EBCFA2"></path>
            <path d="M1429.95,1651.13 C1429.95,1707.26 1237.46,1752.77 1000.01,1752.77 C762.558,1752.77 570.066,1707.26 570.066,1651.13 L570.066,1253.91 L1429.95,1253.91 L1429.95,1651.13" id="Fill-187" fill="#DDBC81"></path>
            <path d="M570.068,1480.81 L570.068,1572.3 C570.068,1628.58 763.042,1674.2 1001.09,1674.2 C1239.13,1674.2 1432.11,1628.58 1432.11,1572.3 L1432.11,1480.81 C1432.11,1537.09 1239.13,1582.71 1001.09,1582.71 C763.043,1582.71 570.068,1537.09 570.068,1480.81" id="Fill-188" fill="#E17395"></path>
            <path d="M570.068,1596.11 L570.068,1624.21 C570.068,1680.48 763.042,1726.11 1001.09,1726.11 C1239.13,1726.11 1432.11,1680.48 1432.11,1624.21 L1432.11,1596.11 C1432.11,1652.39 1239.13,1698.01 1001.09,1698.01 C763.042,1698.01 570.068,1652.39 570.068,1596.11" id="Fill-189" fill="#6D3E31"></path>
            <path d="M660.583,1704.41 C663.848,1697.26 672.822,1691.42 674.673,1698.89 C676.524,1706.36 656.638,1713.05 660.583,1704.41" id="Fill-190" fill="#CDAC71"></path>
            <path d="M1175.79,1737.03 C1165.06,1735.25 1154.01,1725.38 1163.32,1720.21 C1172.63,1715.03 1188.75,1739.17 1175.79,1737.03" id="Fill-191" fill="#CDAC71"></path>
            <path d="M1129.52,1741.39 C1124.17,1736.28 1121.74,1726.5 1128.95,1727.16 C1136.17,1727.82 1135.99,1747.56 1129.52,1741.39" id="Fill-192" fill="#CDAC71"></path>
            <path d="M845.92,1734 C852.353,1727.63 864.402,1724.99 863.347,1733.79 C862.292,1742.6 838.148,1741.69 845.92,1734" id="Fill-193" fill="#CDAC71"></path>
            <path d="M613.929,1580.72 C614.661,1563.56 628.015,1544.37 637.899,1557.97 C647.784,1571.57 613.045,1601.43 613.929,1580.72" id="Fill-194" fill="#E98FA8"></path>
            <path d="M630.126,1603.66 C634.645,1593.76 647.059,1585.67 649.62,1596.01 C652.181,1606.35 624.669,1615.61 630.126,1603.66" id="Fill-195" fill="#E98FA8"></path>
            <path d="M596.019,1587.75 C590.619,1582.03 588.576,1571.52 596.197,1572.61 C603.819,1573.71 602.542,1594.65 596.019,1587.75" id="Fill-196" fill="#E98FA8"></path>
            <path d="M816.384,1620.56 C833.5,1621.9 852.21,1635.93 838.267,1645.32 C824.325,1654.71 795.71,1618.94 816.384,1620.56" id="Fill-197" fill="#E98FA8"></path>
            <path d="M834.219,1608.2 C838.392,1599.07 849.858,1591.6 852.223,1601.15 C854.588,1610.7 829.179,1619.24 834.219,1608.2" id="Fill-198" fill="#E98FA8"></path>
            <path d="M809.133,1611.28 C799.674,1605.91 792.709,1592.83 803.234,1591.19 C813.759,1589.55 820.56,1617.76 809.133,1611.28" id="Fill-199" fill="#E98FA8"></path>
            <path d="M1009.97,1643.71 C1009.74,1629.75 1019.66,1619.53 1028.34,1630.09 C1037.02,1640.66 1010.25,1660.58 1009.97,1643.71" id="Fill-200" fill="#E98FA8"></path>
            <path d="M718.733,1614.17 C718.075,1603.32 723.156,1596.59 730.274,1604.52 C737.39,1612.45 719.527,1627.29 718.733,1614.17" id="Fill-201" fill="#E98FA8"></path>
            <path d="M998.823,1620.42 C998.165,1609.56 1003.25,1602.84 1010.36,1610.77 C1017.48,1618.7 999.618,1633.53 998.823,1620.42" id="Fill-202" fill="#E98FA8"></path>
            <path d="M1040.29,1620.65 C1030.83,1615.28 1023.86,1602.2 1034.39,1600.56 C1044.91,1598.92 1051.71,1627.13 1040.29,1620.65" id="Fill-203" fill="#E98FA8"></path>
            <path d="M948.991,1646.43 C940.525,1641.03 934.73,1628.63 944.516,1627.62 C954.302,1626.61 959.218,1652.97 948.991,1646.43" id="Fill-204" fill="#E98FA8"></path>
            <path d="M1187.18,1635.93 C1191.7,1626.04 1204.12,1617.95 1206.68,1628.29 C1209.24,1638.63 1181.73,1647.89 1187.18,1635.93" id="Fill-205" fill="#E98FA8"></path>
            <path d="M1186.02,1586.2 C1203.14,1587.54 1221.85,1601.57 1207.9,1610.96 C1193.96,1620.36 1165.35,1584.58 1186.02,1586.2" id="Fill-206" fill="#E98FA8"></path>
            <path d="M1161.26,1620.42 C1160.6,1609.56 1165.68,1602.84 1172.8,1610.77 C1179.91,1618.7 1162.05,1633.53 1161.26,1620.42" id="Fill-207" fill="#E98FA8"></path>
            <path d="M1276.83,1626.67 C1276.17,1615.81 1281.26,1609.09 1288.37,1617.02 C1295.49,1624.94 1277.63,1639.78 1276.83,1626.67" id="Fill-208" fill="#E98FA8"></path>
            <path d="M1390.01,1578.88 C1390.5,1596.04 1378.55,1616.14 1367.72,1603.28 C1356.89,1590.42 1389.41,1558.15 1390.01,1578.88" id="Fill-209" fill="#E98FA8"></path>
            <path d="M1341.3,1591.55 C1345.47,1582.41 1356.94,1574.94 1359.3,1584.49 C1361.67,1594.04 1336.26,1602.58 1341.3,1591.55" id="Fill-210" fill="#E98FA8"></path>
            <path d="M1000.01,1156.17 C1236.83,1156.17 1416.06,1203.28 1442.93,1261.66 C1456.23,1290.55 1418.49,1339.47 1456.7,1409.38 C1472.67,1438.6 1474.81,1482.1 1447.01,1494.93 C1383.66,1524.17 1390.15,1412 1343.93,1397.8 C1320.22,1390.51 1263.19,1501.83 1301.55,1694.79 C1307.05,1722.46 1344.68,1751.05 1278.91,1759.03 C1230.5,1764.91 1243.5,1736.74 1246.07,1715.91 C1271.67,1508.19 1193.14,1402.77 1157.51,1401.54 C1103.27,1399.68 1099.73,1569.16 1051.11,1574 C982.704,1580.81 967.196,1375.68 922.798,1368.9 C872.504,1361.22 864.798,1528.58 794.063,1526.73 C745.468,1525.46 725.253,1425.12 693.326,1414.14 C654.191,1400.68 646.685,1439.24 614.024,1468.96 C573.984,1505.41 530.687,1468.46 545.206,1415.7 C559.596,1363.4 529.182,1280.02 570.514,1239.77 C619.901,1191.69 793.461,1156.17 1000.01,1156.17" id="Fill-211" fill="#BDBDB8"></path>
            <path d="M1000.01,1142.3 C1236.83,1142.3 1416.06,1189.41 1442.93,1247.79 C1456.23,1276.69 1424.59,1336.68 1457.68,1409.16 C1469.23,1434.44 1473.49,1464.27 1445.69,1477.11 C1382.34,1506.35 1382.46,1393.1 1340.24,1396.64 C1281.84,1401.55 1269.58,1597.9 1299.33,1698.62 C1306.59,1723.22 1320.66,1746.76 1280.16,1751.66 C1250.99,1755.18 1246.77,1738.91 1252.58,1702.13 C1269,1598.37 1229.53,1397.01 1154.46,1397.33 C1100.18,1397.56 1099.73,1555.29 1051.11,1560.13 C982.703,1566.95 967.196,1368.42 922.798,1361.63 C872.503,1353.95 864.8,1514.71 794.063,1512.86 C745.466,1511.59 725.254,1417.86 693.326,1406.88 C654.191,1393.42 646.686,1425.37 614.024,1455.1 C573.984,1491.54 530.687,1454.59 545.206,1401.83 C559.596,1349.53 529.182,1266.15 570.514,1225.91 C619.901,1177.82 793.461,1142.3 1000.01,1142.3" id="Fill-212" fill="#E3E1DC"></path>
            <path d="M1000.01,1152.27 C1237.46,1152.27 1429.95,1197.78 1429.95,1253.91 C1429.95,1310.05 1237.46,1355.56 1000.01,1355.56 C762.558,1355.56 570.066,1310.05 570.066,1253.91 C570.066,1197.78 762.558,1152.27 1000.01,1152.27" id="Fill-213" fill="#FFFFFE"></path>
            <path d="M1000.01,1175.86 C827.838,1175.86 688.268,1208.86 688.268,1249.56 C688.268,1290.26 827.838,1323.26 1000.01,1323.26 C1172.17,1323.26 1311.75,1290.26 1311.75,1249.56 C1311.75,1208.86 1172.17,1175.86 1000.01,1175.86" id="Fill-214" fill="#EBCFA2"></path>
            <path d="M712.01,1170.84 C735.569,1170.56 755.633,1180.92 756.825,1193.98 C758.018,1207.03 739.886,1217.84 716.327,1218.12 C692.768,1218.4 672.704,1208.04 671.511,1194.98 C670.319,1181.93 688.451,1171.12 712.01,1170.84" id="Fill-215" fill="#C4577D"></path>
            <path d="M712.01,1170.84 C730.599,1170.62 747.01,1177.02 753.693,1186.15 C753.237,1198.43 735.676,1208.32 713.151,1208.59 C694.561,1208.81 678.15,1202.4 671.466,1193.28 C671.922,1181 689.484,1171.1 712.01,1170.84" id="Fill-216" fill="#E17395"></path>
            <path d="M713.867,1161.72 C729.777,1161.53 743.328,1168.53 744.133,1177.34 C744.938,1186.16 732.693,1193.46 716.783,1193.65 C700.873,1193.84 687.322,1186.84 686.518,1178.02 C685.712,1169.2 697.957,1161.9 713.867,1161.72" id="Fill-217" fill="#C4577D"></path>
            <path d="M713.868,1161.72 C725.391,1161.58 735.676,1165.22 740.778,1170.58 C739.101,1178.11 727.816,1183.95 713.607,1184.12 C702.082,1184.25 691.798,1180.62 686.696,1175.25 C688.374,1167.73 699.657,1161.88 713.868,1161.72" id="Fill-218" fill="#E17395"></path>
            <path d="M699.633,1141.22 C707.504,1151.11 707.922,1162.36 700.615,1169.69 C693.308,1177.02 729.114,1187.84 729.736,1168.48 C730.366,1148.89 707.8,1139.7 699.633,1141.22" id="Fill-219" fill="#C4577D"></path>
            <path d="M701.143,1143.27 C707.381,1152.43 707.422,1162.41 701.059,1169.23 C709.557,1173.16 725.566,1173.65 725.98,1160.76 C726.059,1158.29 725.769,1155.98 725.186,1153.84 C718.574,1144.79 706.453,1140.51 700.389,1141.12 C700.678,1141.84 700.929,1142.56 701.143,1143.27" id="Fill-220" fill="#E17395"></path>
            <path d="M1295.13,1178.46 C1271.57,1178.18 1251.51,1188.54 1250.32,1201.59 C1249.12,1214.65 1267.26,1225.46 1290.82,1225.74 C1314.37,1226.01 1334.44,1215.65 1335.63,1202.6 C1336.82,1189.54 1318.69,1178.73 1295.13,1178.46" id="Fill-221" fill="#C4577D"></path>
            <path d="M1295.13,1178.46 C1276.54,1178.24 1260.13,1184.64 1253.45,1193.77 C1253.91,1206.05 1271.47,1215.94 1293.99,1216.2 C1312.58,1216.42 1328.99,1210.02 1335.67,1200.89 C1335.22,1188.61 1317.66,1178.72 1295.13,1178.46" id="Fill-222" fill="#E17395"></path>
            <path d="M1293.27,1169.34 C1277.36,1169.15 1263.81,1176.14 1263.01,1184.96 C1262.2,1193.78 1274.45,1201.08 1290.36,1201.26 C1306.27,1201.45 1319.82,1194.46 1320.62,1185.64 C1321.43,1176.82 1309.18,1169.52 1293.27,1169.34" id="Fill-223" fill="#C4577D"></path>
            <path d="M1293.27,1169.34 C1281.75,1169.2 1271.47,1172.83 1266.36,1178.2 C1268.04,1185.72 1279.33,1191.56 1293.54,1191.73 C1305.06,1191.87 1315.34,1188.23 1320.45,1182.87 C1318.77,1175.34 1307.48,1169.5 1293.27,1169.34" id="Fill-224" fill="#E17395"></path>
            <path d="M1307.51,1148.84 C1299.64,1158.73 1299.22,1169.98 1306.53,1177.31 C1313.83,1184.64 1278.03,1195.46 1277.41,1176.1 C1276.78,1156.5 1299.34,1147.31 1307.51,1148.84" id="Fill-225" fill="#C4577D"></path>
            <path d="M1306,1150.89 C1299.76,1160.04 1299.72,1170.02 1306.08,1176.85 C1297.58,1180.78 1281.58,1181.27 1281.16,1168.37 C1281.08,1165.9 1281.37,1163.6 1281.96,1161.46 C1288.57,1152.4 1300.69,1148.13 1306.75,1148.73 C1306.46,1149.45 1306.21,1150.17 1306,1150.89" id="Fill-226" fill="#E17395"></path>
            <path d="M688.268,1249.56 C688.268,1290.26 827.839,1323.26 1000.01,1323.26 C1172.18,1323.26 1311.75,1290.26 1311.75,1249.56 L1311.75,935.678 L688.268,935.678 L688.268,1249.56" id="Fill-227" fill="#6D3E31"></path>
            <path d="M1000.01,866.517 C828.291,866.517 698.337,900.671 678.852,943.003 C669.211,963.952 688.268,998.334 675.661,1021.93 C666.672,1038.75 660.482,1065.74 680.616,1075.1 C710.951,1089.21 724.787,1056.01 753.315,1044.59 C777.765,1034.81 772.582,1138.11 813.494,1140.9 C859.794,1144.06 852.192,1043.15 888.022,1043.51 C927.372,1043.9 927.701,1165.96 962.957,1169.47 C1012.55,1174.41 1023.8,1022.54 1055.99,1017.62 C1092.46,1012.05 1098.04,1136.54 1149.33,1135.2 C1184.57,1134.27 1200.81,1059.97 1223.96,1052.01 C1252.33,1042.25 1261.86,1107.21 1285.54,1128.76 C1314.58,1155.19 1345.97,1128.39 1335.44,1090.14 C1325.01,1052.22 1341.39,956.313 1311.42,927.134 C1275.61,892.27 1149.77,866.517 1000.01,866.517" id="Fill-228" fill="#C4577D"></path>
            <path d="M1000.01,854.752 C828.291,854.752 698.337,888.907 678.852,931.24 C669.211,952.188 688.268,986.57 675.661,1010.16 C666.672,1026.99 660.481,1053.97 680.616,1063.34 C710.951,1077.45 724.787,1050.58 753.315,1039.17 C777.766,1029.39 772.581,1126.34 813.494,1129.14 C859.795,1132.3 852.192,1039.31 888.022,1039.67 C927.373,1040.06 927.7,1154.2 962.957,1157.71 C1012.55,1162.65 1023.8,1018.7 1055.99,1013.78 C1092.46,1008.21 1098.04,1124.77 1149.33,1123.43 C1184.57,1122.51 1199.22,1054.55 1222.37,1046.58 C1250.75,1036.83 1261.86,1095.44 1285.54,1117 C1314.58,1143.42 1345.97,1116.63 1335.44,1078.37 C1325.01,1040.45 1341.39,944.549 1311.42,915.369 C1275.61,880.505 1149.77,854.752 1000.01,854.752" id="Fill-229" fill="#E17395"></path>
            <path d="M1000.01,861.977 C827.838,861.977 688.268,894.975 688.268,935.678 C688.268,976.382 827.838,1009.38 1000.01,1009.38 C1172.17,1009.38 1311.75,976.382 1311.75,935.678 C1311.75,894.975 1172.17,861.977 1000.01,861.977" id="Fill-230" fill="#E98FA8"></path>
            <path d="M688.268,1141.41 L688.268,1165.21 C688.268,1205.92 827.838,1238.91 1000.01,1238.91 C1172.17,1238.91 1311.75,1205.92 1311.75,1165.21 L1311.75,1141.41 C1311.75,1182.11 1172.17,1215.11 1000.01,1215.11 C827.838,1215.11 688.268,1182.11 688.268,1141.41" id="Fill-231" fill="#FFFFFE"></path>
            <path d="M553.43,1421.19 C551.198,1455.58 574.179,1459.69 593.337,1456.9 C603.071,1455.48 601.72,1453.22 593.519,1451.47 C587.179,1450.12 558.731,1445.33 559.102,1421.55 C559.231,1413.27 553.854,1414.69 553.43,1421.19" id="Fill-232" fill="#FFFFFE"></path>
            <path d="M768.175,1481.55 C791.733,1512.2 812.339,1499.11 822.949,1477.88 C827.345,1469.08 826.265,1471.31 819.239,1475.89 C813.806,1479.42 789.004,1494.86 772.431,1477.79 C766.665,1471.85 764.203,1476.39 768.175,1481.55" id="Fill-233" fill="#FFFFFE"></path>
            <path d="M1022.16,1530.96 C1044.3,1559.77 1063.67,1547.47 1073.64,1527.51 C1077.77,1519.24 1076.76,1521.33 1070.15,1525.63 C1065.05,1528.95 1041.74,1543.46 1026.16,1527.42 C1020.74,1521.84 1018.42,1526.1 1022.16,1530.96" id="Fill-234" fill="#FFFFFE"></path>
            <path d="M1302.17,1728.88 C1284.46,1755.61 1266.65,1745.99 1256.64,1729.04 C1252.48,1722.01 1253.51,1723.8 1259.59,1727.17 C1264.29,1729.78 1286.44,1741.34 1298.91,1727.97 C1303.6,1722.95 1305.15,1724.37 1302.17,1728.88" id="Fill-235" fill="#FFFFFE"></path>
            <path d="M1454.53,1441.63 C1445.97,1476.94 1423.27,1473.54 1406.07,1459.34 C1398.94,1453.46 1400.71,1454.96 1408.49,1456.21 C1414.51,1457.18 1441.7,1460.99 1449.44,1440.01 C1452.13,1432.72 1455.97,1435.67 1454.53,1441.63" id="Fill-236" fill="#FFFFFE"></path>
            <path d="M674.417,1033.95 C672.828,1058.42 689.183,1061.34 702.817,1059.36 C709.745,1058.35 708.784,1056.74 702.948,1055.5 C698.434,1054.54 678.189,1051.13 678.454,1034.2 C678.545,1028.31 674.717,1029.32 674.417,1033.95" id="Fill-237" fill="#E98FA8"></path>
            <path d="M833.844,1108.55 C819.044,1128.1 804.76,1119.62 795.74,1109.21 C791.157,1103.91 792.938,1103.32 798.166,1106.2 C802.209,1108.42 819.756,1119.08 830.627,1106.1 C834.408,1101.58 836.643,1104.85 833.844,1108.55" id="Fill-238" fill="#E98FA8"></path>
            <path d="M986.214,1137.25 C971.413,1156.8 957.129,1148.32 948.109,1137.91 C943.526,1132.61 945.307,1132.02 950.536,1134.9 C954.578,1137.12 972.125,1147.78 982.995,1134.8 C986.777,1130.28 989.011,1133.55 986.214,1137.25" id="Fill-239" fill="#E98FA8"></path>
            <path d="M1129.28,1104.75 C1144.08,1124.3 1158.36,1115.82 1167.38,1105.41 C1171.96,1100.11 1170.18,1099.52 1164.95,1102.4 C1160.91,1104.62 1143.36,1115.28 1132.49,1102.3 C1128.71,1097.78 1126.48,1101.05 1129.28,1104.75" id="Fill-240" fill="#E98FA8"></path>
            <path d="M1292.09,1108.61 C1311.19,1124 1322.99,1112.3 1329.22,1100.01 C1332.38,1093.77 1330.51,1093.62 1326.13,1097.68 C1322.75,1100.82 1308.31,1115.41 1294.62,1105.46 C1289.85,1101.99 1288.48,1105.71 1292.09,1108.61" id="Fill-241" fill="#E98FA8"></path>
            <path d="M1167.51,1530.92 C1184.62,1532.35 1203.26,1546.47 1189.27,1555.79 C1175.28,1565.12 1146.84,1529.2 1167.51,1530.92" id="Fill-242" fill="#CDAC71"></path>
            <path d="M1358.92,1514.88 C1363.43,1504.98 1375.85,1496.89 1378.41,1507.23 C1380.97,1517.57 1353.46,1526.83 1358.92,1514.88" id="Fill-243" fill="#CDAC71"></path>
            <path d="M1166.68,1515.14 C1171.19,1505.24 1183.61,1497.15 1186.17,1507.49 C1188.73,1517.83 1161.22,1527.09 1166.68,1515.14" id="Fill-244" fill="#CDAC71"></path>
            <path d="M636.506,1497.48 C652.195,1490.51 675.327,1493.93 667.543,1508.83 C659.759,1523.73 617.556,1505.9 636.506,1497.48" id="Fill-245" fill="#CDAC71"></path>
            <path d="M665.983,1483.39 C676.12,1479.44 690.658,1482.3 685.287,1491.49 C679.916,1500.69 653.74,1488.15 665.983,1483.39" id="Fill-246" fill="#CDAC71"></path>
            <path d="M909.024,1510.95 C909.756,1493.79 923.11,1474.6 932.994,1488.2 C942.879,1501.8 908.14,1531.66 909.024,1510.95" id="Fill-247" fill="#CDAC71"></path>
            <path d="M918.144,1535.37 C922.662,1525.47 935.077,1517.39 937.638,1527.73 C940.198,1538.07 912.686,1547.32 918.144,1535.37" id="Fill-248" fill="#CDAC71"></path>
            <path d="M875.056,1508.25 C885.193,1504.31 899.731,1507.16 894.361,1516.36 C888.99,1525.56 862.813,1513.02 875.056,1508.25" id="Fill-249" fill="#CDAC71"></path>
            <path d="M728.749,1136.91 C740.462,1125.32 762.397,1120.52 760.478,1136.54 C758.559,1152.57 714.601,1150.93 728.749,1136.91" id="Fill-250" fill="#452721"></path>
            <path d="M740.023,1115.2 C733.035,1107.44 730.658,1093.42 740.745,1095.11 C750.832,1096.81 748.464,1124.58 740.023,1115.2" id="Fill-251" fill="#452721"></path>
            <path d="M1171.69,1255.41 C1186.62,1262.41 1198.69,1281.34 1182.99,1285.07 C1167.28,1288.8 1153.65,1246.97 1171.69,1255.41" id="Fill-252" fill="#452721"></path>
            <path d="M1242.57,1154.88 C1228.35,1146.55 1218.07,1126.58 1234.05,1124.32 C1250.04,1122.05 1259.75,1164.96 1242.57,1154.88" id="Fill-253" fill="#452721"></path>
            <path d="M1210.64,1163.8 C1210.47,1153.36 1217.89,1141.22 1224.38,1149.13 C1230.87,1157.03 1210.85,1176.42 1210.64,1163.8" id="Fill-254" fill="#452721"></path>
            <path d="M1072.45,1096.32 C1082.25,1090.8 1096.05,1095.76 1090.67,1109.46 C1085.28,1123.16 1060.63,1103.01 1072.45,1096.32" id="Fill-255" fill="#452721"></path>
            <path d="M1057.57,1134.98 C1057.4,1124.54 1064.82,1112.4 1071.31,1120.31 C1077.8,1128.21 1057.78,1147.6 1057.57,1134.98" id="Fill-256" fill="#452721"></path>
            <path d="M801.012,1542.43 C811.21,1536.67 825.59,1541.85 819.981,1556.11 C814.371,1570.38 788.694,1549.39 801.012,1542.43" id="Fill-257" fill="#CDAC71"></path>
            <path d="M826.533,1555.91 C831.052,1546.02 843.466,1537.93 846.026,1548.27 C848.588,1558.61 821.076,1567.87 826.533,1555.91" id="Fill-258" fill="#CDAC71"></path>
            <path d="M862.186,1192.85 C861.956,1178.89 871.878,1168.67 880.558,1179.23 C889.237,1189.8 862.464,1209.72 862.186,1192.85" id="Fill-259" fill="#452721"></path>
            <path d="M1318.85,963.474 C1286.34,991.245 1206.43,1013.24 1105.07,1022.37 C1196.19,1044.96 1311.61,1004.46 1318.85,963.474" id="Fill-260" fill="#C86787"></path>
            <path d="M684.508,966.181 C730.523,1001.6 854.406,1026.96 1000.01,1026.96 C900.625,1048.81 705.953,1021.08 684.508,966.181" id="Fill-261" fill="#C86787"></path>
            <path d="M564.356,1290.3 C608.317,1327.86 716.394,1357.6 853.476,1369.96 C742.986,1391.99 584.676,1351.56 564.356,1290.3" id="Fill-262" fill="#CAC9C3"></path>
            <path d="M1422.24,1293.96 C1360.01,1341.86 1192.47,1376.17 995.556,1376.17 C1157.76,1410.46 1387.58,1360.37 1422.24,1293.96" id="Fill-263" fill="#CAC9C3"></path>
            <path d="M736.843,918.959 C755.943,921.733 772.211,934.269 773.178,946.96 C774.144,959.65 759.444,967.689 740.344,964.915 C721.243,962.141 704.975,949.605 704.009,936.914 C703.042,924.223 717.743,916.186 736.843,918.959" id="Fill-264" fill="#E3E1DC"></path>
            <path d="M736.843,918.959 C751.914,921.149 765.219,929.415 770.638,939.04 C770.268,950.772 756.03,958.005 737.768,955.352 C722.697,953.164 709.392,944.897 703.973,935.272 C704.343,923.539 718.581,916.307 736.843,918.959" id="Fill-265" fill="#FFFFFE"></path>
            <path d="M738.349,910.44 C751.249,912.315 762.234,920.78 762.887,929.351 C763.54,937.921 753.612,943.349 740.713,941.476 C727.815,939.603 716.829,931.136 716.175,922.567 C715.523,913.996 725.451,908.567 738.349,910.44" id="Fill-266" fill="#E3E1DC"></path>
            <path d="M738.35,910.44 C747.692,911.798 756.031,916.614 760.167,922.423 C758.807,929.435 749.658,933.587 738.138,931.913 C728.794,930.556 720.457,925.741 716.321,919.932 C717.68,912.92 726.829,908.767 738.35,910.44" id="Fill-267" fill="#FFFFFE"></path>
            <path d="M726.808,888.925 C733.19,899.437 733.529,910.292 727.605,916.389 C721.681,922.485 750.71,937.493 751.215,918.983 C751.725,900.249 733.43,888.515 726.808,888.925" id="Fill-268" fill="#E3E1DC"></path>
            <path d="M728.033,891.089 C733.09,900.683 733.123,910.272 727.964,916.003 C734.854,920.872 747.834,923.407 748.17,911.083 C748.234,908.721 747.998,906.47 747.526,904.341 C742.164,894.79 732.337,889.122 727.422,888.921 C727.656,889.649 727.859,890.373 728.033,891.089" id="Fill-269" fill="#FFFFFE"></path>
            <path d="M797.226,871.112 C817.475,870.874 834.722,879.778 835.746,891 C836.771,902.221 821.186,911.512 800.936,911.75 C780.687,911.989 763.441,903.085 762.417,891.864 C761.392,880.641 776.977,871.35 797.226,871.112" id="Fill-270" fill="#E3E1DC"></path>
            <path d="M797.226,871.112 C813.203,870.924 827.31,876.429 833.054,884.273 C832.662,894.826 817.567,903.33 798.206,903.557 C782.229,903.746 768.123,898.242 762.379,890.398 C762.77,879.843 777.865,871.34 797.226,871.112" id="Fill-271" fill="#FFFFFE"></path>
            <path d="M798.823,863.273 C812.498,863.112 824.144,869.124 824.837,876.703 C825.529,884.282 815.004,890.555 801.329,890.716 C787.654,890.877 776.008,884.865 775.315,877.286 C774.623,869.707 785.148,863.434 798.823,863.273" id="Fill-272" fill="#E3E1DC"></path>
            <path d="M798.823,863.273 C808.728,863.156 817.568,866.279 821.952,870.89 C820.511,877.359 810.812,882.379 798.598,882.524 C788.693,882.64 779.854,879.517 775.469,874.907 C776.91,868.436 786.609,863.416 798.823,863.273" id="Fill-273" fill="#FFFFFE"></path>
            <path d="M786.588,845.658 C793.353,854.157 793.713,863.826 787.432,870.128 C781.152,876.429 811.927,885.727 812.462,869.086 C813.004,852.244 793.607,844.346 786.588,845.658" id="Fill-274" fill="#E3E1DC"></path>
            <path d="M787.886,847.42 C793.248,855.287 793.283,863.866 787.813,869.731 C795.118,873.108 808.878,873.527 809.234,862.449 C809.302,860.325 809.053,858.343 808.552,856.505 C802.868,848.719 792.45,845.047 787.238,845.567 C787.487,846.185 787.702,846.803 787.886,847.42" id="Fill-275" fill="#FFFFFE"></path>
            <path d="M828.108,945.251 C850.73,946.382 869.995,957.518 871.14,970.126 C872.285,982.733 854.875,992.036 832.253,990.905 C809.632,989.775 790.366,978.64 789.22,966.031 C788.076,953.424 805.487,944.121 828.108,945.251" id="Fill-282" fill="#E3E1DC"></path>
            <path d="M828.108,945.251 C845.957,946.144 861.716,953.267 868.132,962.425 C867.694,974.188 850.832,982.647 829.203,981.565 C811.354,980.674 795.595,973.551 789.178,964.393 C789.615,952.628 806.479,944.171 828.108,945.251" id="Fill-283" fill="#FFFFFE"></path>
            <path d="M829.892,936.604 C845.168,937.367 858.18,944.887 858.952,953.402 C859.726,961.916 847.968,968.199 832.691,967.435 C817.415,966.672 804.404,959.151 803.63,950.637 C802.857,942.123 814.615,935.841 829.892,936.604" id="Fill-284" fill="#E3E1DC"></path>
            <path d="M829.892,936.604 C840.957,937.157 850.833,941.256 855.731,946.709 C854.121,953.837 843.284,958.776 829.641,958.094 C818.576,957.54 808.701,953.443 803.803,947.99 C805.413,940.862 816.247,935.921 829.892,936.604" id="Fill-285" fill="#FFFFFE"></path>
            <path d="M816.223,916.081 C823.781,926.043 824.183,936.869 817.166,943.476 C810.15,950.083 844.531,962.592 845.128,944.038 C845.734,925.261 824.066,915.101 816.223,916.081" id="Fill-286" fill="#E3E1DC"></path>
            <path d="M817.674,918.139 C823.663,927.299 823.703,936.885 817.593,943.059 C825.753,947.335 841.124,948.754 841.522,936.401 C841.598,934.033 841.32,931.802 840.76,929.713 C834.41,920.625 822.772,915.802 816.95,916.025 C817.228,916.732 817.468,917.438 817.674,918.139" id="Fill-287" fill="#FFFFFE"></path>
            <path d="M906.662,858.551 C886.413,858.313 869.167,867.218 868.142,878.439 C867.117,889.661 882.702,898.951 902.951,899.19 C923.201,899.429 940.447,890.525 941.471,879.303 C942.495,868.081 926.912,858.791 906.662,858.551" id="Fill-288" fill="#E3E1DC"></path>
            <path d="M906.662,858.551 C890.684,858.363 876.579,863.868 870.834,871.712 C871.226,882.266 886.321,890.77 905.682,890.996 C921.659,891.186 935.765,885.681 941.509,877.837 C941.118,867.282 926.023,858.781 906.662,858.551" id="Fill-289" fill="#FFFFFE"></path>
            <path d="M905.065,850.712 C891.391,850.551 879.744,856.564 879.051,864.143 C878.359,871.721 888.884,877.996 902.559,878.157 C916.234,878.318 927.88,872.304 928.573,864.725 C929.265,857.148 918.74,850.873 905.065,850.712" id="Fill-290" fill="#E3E1DC"></path>
            <path d="M905.065,850.712 C895.159,850.596 886.32,853.719 881.935,858.329 C883.377,864.799 893.077,869.82 905.289,869.964 C915.195,870.079 924.034,866.957 928.419,862.347 C926.977,855.876 917.279,850.856 905.065,850.712" id="Fill-291" fill="#FFFFFE"></path>
            <path d="M917.3,833.097 C910.534,841.596 910.175,851.266 916.456,857.568 C922.737,863.868 891.961,873.167 891.426,856.526 C890.885,839.683 910.28,831.785 917.3,833.097" id="Fill-292" fill="#E3E1DC"></path>
            <path d="M916.002,834.859 C910.64,842.727 910.605,851.305 916.074,857.171 C908.77,860.547 895.011,860.968 894.655,849.888 C894.586,847.764 894.835,845.782 895.337,843.945 C901.021,836.159 911.438,832.486 916.649,833.006 C916.401,833.624 916.187,834.242 916.002,834.859" id="Fill-293" fill="#FFFFFE"></path>
            <path d="M936.526,957.58 C913.904,957.313 894.639,967.259 893.494,979.796 C892.349,992.333 909.759,1002.71 932.38,1002.98 C955.002,1003.24 974.268,993.298 975.414,980.761 C976.558,968.224 959.147,957.846 936.526,957.58" id="Fill-300" fill="#E3E1DC"></path>
            <path d="M936.526,957.579 C918.677,957.369 902.918,963.519 896.502,972.281 C896.94,984.071 913.802,993.571 935.43,993.825 C953.279,994.036 969.039,987.887 975.455,979.124 C975.019,967.333 958.155,957.834 936.526,957.579" id="Fill-301" fill="#FFFFFE"></path>
            <path d="M934.742,948.821 C919.466,948.642 906.455,955.358 905.682,963.825 C904.908,972.291 916.665,979.301 931.943,979.48 C947.219,979.66 960.23,972.943 961.003,964.477 C961.776,956.01 950.02,949.001 934.742,948.821" id="Fill-302" fill="#E3E1DC"></path>
            <path d="M934.742,948.821 C923.677,948.692 913.801,952.18 908.903,957.33 C910.513,964.559 921.349,970.167 934.993,970.327 C946.058,970.457 955.933,966.969 960.831,961.818 C959.221,954.59 948.387,948.982 934.742,948.821" id="Fill-303" fill="#FFFFFE"></path>
            <path d="M948.411086,929.143 C940.853,938.638 940.451,949.44 947.467,956.479 C954.484,963.519 920.103,973.906 919.506,955.316 C918.9,936.501 940.569,927.677 948.411086,929.143" id="Fill-304" fill="#E3E1DC"></path>
            <path d="M946.959,931.112 C940.971,939.901 940.931,949.484 947.041,956.036 C938.881,959.809 923.51,960.277 923.112,947.9 C923.036,945.528 923.314,943.314 923.874,941.26 C930.224,932.563 941.862,928.459 947.684,929.041 C947.406,929.732 947.166,930.422 946.959,931.112" id="Fill-305" fill="#FFFFFE"></path>
            <path d="M1048.77,955.504 C1071.39,954.585 1090.66,963.977 1091.8,976.481 C1092.95,988.984 1075.54,999.864 1052.92,1000.78 C1030.3,1001.7 1011.03,992.309 1009.88,979.805 C1008.74,967.301 1026.15,956.421 1048.77,955.504" id="Fill-306" fill="#E3E1DC"></path>
            <path d="M1048.77,955.502 C1066.62,954.779 1082.38,960.474 1088.8,969.052 C1088.36,980.854 1071.49,990.84 1049.87,991.717 C1032.02,992.442 1016.26,986.748 1009.84,978.169 C1010.28,966.366 1027.14,956.381 1048.77,955.502" id="Fill-307" fill="#FFFFFE"></path>
            <path d="M1050.55,946.694 C1065.83,946.074 1078.84,952.417 1079.62,960.86 C1080.39,969.305 1068.63,976.652 1053.36,977.272 C1038.08,977.892 1025.07,971.55 1024.29,963.106 C1023.52,954.661 1035.28,947.314 1050.55,946.694" id="Fill-308" fill="#E3E1DC"></path>
            <path d="M1050.56,946.694 C1061.62,946.245 1071.5,949.449 1076.39,954.458 C1074.78,961.733 1063.95,967.653 1050.31,968.207 C1039.24,968.655 1029.36,965.452 1024.47,960.443 C1026.08,953.168 1036.91,947.247 1050.56,946.694" id="Fill-309" fill="#FFFFFE"></path>
            <path d="M1036.89,927.409 C1044.44,936.686 1044.85,947.476 1037.83,954.718 C1030.81,961.96 1065.19,971.357 1065.79,952.748 C1066.4,933.916 1044.73,925.718 1036.89,927.409" id="Fill-310" fill="#E3E1DC"></path>
            <path d="M1038.34,929.336 C1044.33,937.953 1044.37,947.535 1038.26,954.263 C1046.42,957.8 1061.79,957.827 1062.19,945.437 C1062.26,943.063 1061.98,940.857 1061.42,938.819 C1055.07,930.305 1043.44,926.538 1037.61,927.287 C1037.89,927.97 1038.13,928.653 1038.34,929.336" id="Fill-311" fill="#FFFFFE"></path>
            <path d="M1203.56,872.63 C1183.31,872.391 1166.06,881.295 1165.04,892.517 C1164.01,903.739 1179.6,913.029 1199.85,913.268 C1220.1,913.506 1237.34,904.603 1238.37,893.381 C1239.39,882.159 1223.81,872.868 1203.56,872.63" id="Fill-312" fill="#E3E1DC"></path>
            <path d="M1203.56,872.629 C1187.58,872.442 1173.47,877.946 1167.73,885.79 C1168.12,896.344 1183.22,904.847 1202.58,905.075 C1218.56,905.263 1232.66,899.76 1238.41,891.916 C1238.01,881.361 1222.92,872.858 1203.56,872.629" id="Fill-313" fill="#FFFFFE"></path>
            <path d="M1201.96,864.79 C1188.29,864.629 1176.64,870.642 1175.95,878.22 C1175.26,885.799 1185.78,892.074 1199.46,892.234 C1213.13,892.396 1224.78,886.383 1225.47,878.804 C1226.16,871.226 1215.64,864.951 1201.96,864.79" id="Fill-314" fill="#E3E1DC"></path>
            <path d="M1201.96,864.79 C1192.06,864.674 1183.22,867.797 1178.83,872.407 C1180.27,878.878 1189.97,883.897 1202.18,884.041 C1212.09,884.157 1220.93,881.035 1225.32,876.424 C1223.87,869.954 1214.18,864.934 1201.96,864.79" id="Fill-315" fill="#FFFFFE"></path>
            <path d="M1214.2,847.175 C1207.43,855.674 1207.07,865.343 1213.35,871.645 C1219.63,877.947 1188.86,887.245 1188.32,870.603 C1187.78,853.761 1207.18,845.864 1214.2,847.175" id="Fill-316" fill="#E3E1DC"></path>
            <path d="M1212.9,848.938 C1207.54,856.805 1207.5,865.384 1212.97,871.248 C1205.67,874.625 1191.91,875.046 1191.55,863.966 C1191.48,861.842 1191.73,859.86 1192.23,858.022 C1197.92,850.237 1208.33,846.564 1213.55,847.084 C1213.3,847.703 1213.08,848.321 1212.9,848.938" id="Fill-317" fill="#FFFFFE"></path>
            <path d="M1163.54,946.467 C1140.92,946.201 1121.65,956.147 1120.51,968.683 C1119.36,981.22 1136.77,991.598 1159.39,991.865 C1182.02,992.131 1201.28,982.184 1202.43,969.648 C1203.57,957.112 1186.16,946.732 1163.54,946.467" id="Fill-324" fill="#E3E1DC"></path>
            <path d="M1163.54,946.466 C1145.69,946.256 1129.93,952.406 1123.51,961.168 C1123.95,972.958 1140.81,982.458 1162.44,982.712 C1180.29,982.924 1196.05,976.773 1202.47,968.011 C1202.03,956.22 1185.17,946.721 1163.54,946.466" id="Fill-325" fill="#FFFFFE"></path>
            <path d="M1161.76,937.708 C1146.48,937.529 1133.47,944.246 1132.69,952.712 C1131.92,961.179 1143.68,968.188 1158.96,968.367 C1174.23,968.547 1187.24,961.83 1188.02,953.364 C1188.79,944.898 1177.03,937.888 1161.76,937.708" id="Fill-326" fill="#E3E1DC"></path>
            <path d="M1161.76,937.708 C1150.69,937.579 1140.81,941.067 1135.92,946.218 C1137.53,953.446 1148.36,959.054 1162.01,959.215 C1173.07,959.344 1182.95,955.856 1187.84,950.705 C1186.23,943.477 1175.4,937.869 1161.76,937.708" id="Fill-327" fill="#FFFFFE"></path>
            <path d="M1175.42,918.03 C1167.87,927.525 1167.46,938.327 1174.48,945.366 C1181.5,952.406 1147.12,962.793 1146.52,944.203 C1145.91,925.388 1167.58,916.564 1175.42,918.03" id="Fill-328" fill="#E3E1DC"></path>
            <path d="M1173.97,919.999 C1167.98,928.788 1167.94,938.372 1174.05,944.923 C1165.89,948.696 1150.52,949.165 1150.13,936.788 C1150.05,934.414 1150.33,932.201 1150.89,930.148 C1157.24,921.45 1168.88,917.347 1174.7,917.928 C1174.42,918.619 1174.18,919.31 1173.97,919.999" id="Fill-329" fill="#FFFFFE"></path>
            <path d="M1263.24,919.977 C1283.28,918.125 1300.35,926.72 1301.36,939.176 C1302.37,951.633 1286.95,963.232 1266.92,965.085 C1246.88,966.937 1229.82,958.342 1228.8,945.885 C1227.79,933.429 1243.21,921.83 1263.24,919.977" id="Fill-330" fill="#E3E1DC"></path>
            <path d="M1263.24,919.977 C1279.06,918.516 1293.01,923.56 1298.7,931.872 C1298.31,943.694 1283.37,954.376 1264.22,956.146 C1248.41,957.608 1234.45,952.564 1228.76,944.251 C1229.15,932.429 1244.09,921.748 1263.24,919.977" id="Fill-331" fill="#FFFFFE"></path>
            <path d="M1264.83,911.094 C1278.36,909.843 1289.88,915.648 1290.57,924.06 C1291.25,932.472 1280.84,940.306 1267.31,941.556 C1253.77,942.807 1242.25,937.003 1241.56,928.59 C1240.88,920.178 1251.29,912.345 1264.83,911.094" id="Fill-332" fill="#E3E1DC"></path>
            <path d="M1264.83,911.094 C1274.63,910.188 1283.37,912.985 1287.71,917.791 C1286.29,925.133 1276.69,931.5 1264.6,932.617 C1254.8,933.523 1246.06,930.727 1241.72,925.921 C1243.14,918.579 1252.74,912.21 1264.83,911.094" id="Fill-333" fill="#FFFFFE"></path>
            <path d="M1252.72,892.374 C1259.41,901.339 1259.77,912.113 1253.55,919.644 C1247.34,927.176 1277.79,935.152 1278.32,916.52 C1278.86,897.662 1259.66,890.359 1252.72,892.374" id="Fill-334" fill="#E3E1DC"></path>
            <path d="M1254,894.24 C1259.31,902.61 1259.34,912.191 1253.93,919.171 C1261.16,922.372 1274.77,921.763 1275.13,909.358 C1275.19,906.98 1274.95,904.785 1274.45,902.771 C1268.83,894.519 1258.52,891.231 1253.36,892.221 C1253.61,892.892 1253.82,893.566 1254,894.24" id="Fill-335" fill="#FFFFFE"></path>
            <path d="M1101.71,860.828 C1121.96,860.59 1139.2,869.493 1140.23,880.716 C1141.25,891.938 1125.67,901.228 1105.42,901.466 C1085.17,901.704 1067.92,892.802 1066.9,881.579 C1065.88,870.357 1081.46,861.067 1101.71,860.828" id="Fill-336" fill="#E3E1DC"></path>
            <path d="M1101.71,860.828 C1117.69,860.64 1131.79,866.145 1137.54,873.989 C1137.14,884.543 1122.05,893.045 1102.69,893.273 C1086.71,893.461 1072.61,887.958 1066.86,880.114 C1067.25,869.559 1082.35,861.056 1101.71,860.828" id="Fill-337" fill="#FFFFFE"></path>
            <path d="M1103.31,852.989 C1116.98,852.828 1128.63,858.841 1129.32,866.419 C1130.01,873.998 1119.49,880.271 1105.81,880.432 C1092.14,880.593 1080.49,874.581 1079.8,867.002 C1079.11,859.423 1089.63,853.15 1103.31,852.989" id="Fill-338" fill="#E3E1DC"></path>
            <path d="M1103.31,852.989 C1113.21,852.872 1122.05,855.995 1126.44,860.605 C1124.99,867.076 1115.29,872.095 1103.08,872.239 C1093.18,872.355 1084.34,869.234 1079.95,864.623 C1081.39,858.153 1091.09,853.132 1103.31,852.989" id="Fill-339" fill="#FFFFFE"></path>
            <path d="M1091.07,835.374 C1097.84,843.873 1098.2,853.542 1091.92,859.843 C1085.63,866.145 1116.41,875.442 1116.94,858.802 C1117.49,841.959 1098.09,834.062 1091.07,835.374" id="Fill-340" fill="#E3E1DC"></path>
            <path d="M1092.37,837.136 C1097.73,845.003 1097.77,853.582 1092.3,859.446 C1099.6,862.824 1113.36,863.243 1113.72,852.164 C1113.79,850.04 1113.54,848.059 1113.03,846.22 C1107.35,838.435 1096.93,834.762 1091.72,835.283 C1091.97,835.901 1092.18,836.519 1092.37,837.136" id="Fill-341" fill="#FFFFFE"></path>
            <path d="M998.152,850.615 C1018.4,850.377 1035.65,859.281 1036.67,870.502 C1037.7,881.724 1022.11,891.014 1001.86,891.252 C981.613,891.492 964.367,882.588 963.342,871.365 C962.317,860.143 977.902,850.853 998.152,850.615" id="Fill-342" fill="#E3E1DC"></path>
            <path d="M998.152,850.615 C1014.13,850.426 1028.23,855.932 1033.98,863.775 C1033.59,874.329 1018.49,882.833 999.133,883.059 C983.154,883.249 969.048,877.744 963.304,869.9 C963.695,859.345 978.79,850.843 998.152,850.615" id="Fill-343" fill="#FFFFFE"></path>
            <path d="M999.748,842.775 C1013.42,842.615 1025.07,848.627 1025.76,856.206 C1026.45,863.784 1015.93,870.058 1002.25,870.219 C988.579,870.38 976.933,864.367 976.241,856.789 C975.548,849.21 986.074,842.937 999.748,842.775" id="Fill-344" fill="#E3E1DC"></path>
            <path d="M999.749,842.775 C1009.65,842.659 1018.49,845.781 1022.88,850.391 C1021.44,856.862 1011.74,861.882 999.525,862.027 C989.618,862.143 980.78,859.02 976.395,854.41 C977.836,847.939 987.534,842.918 999.749,842.775" id="Fill-345" fill="#FFFFFE"></path>
            <path d="M987.513,825.16 C994.278,833.66 994.638,843.329 988.357,849.63 C982.077,855.932 1012.85,865.23 1013.39,848.588 C1013.93,831.746 994.533,823.848 987.513,825.16" id="Fill-346" fill="#E3E1DC"></path>
            <path d="M988.812,826.922 C994.173,834.79 994.208,843.369 988.738,849.234 C996.044,852.61 1009.8,853.03 1010.16,841.951 C1010.23,839.826 1009.98,837.845 1009.48,836.006 C1003.79,828.222 993.375,824.549 988.163,825.069 C988.412,825.687 988.627,826.305 988.812,826.922" id="Fill-347" fill="#FFFFFE"></path>
            <path d="M1002.17,1302.15 C978.608,1301.87 958.543,1312.23 957.35,1325.29 C956.159,1338.34 974.29,1349.15 997.849,1349.43 C1021.41,1349.71 1041.47,1339.35 1042.66,1326.29 C1043.86,1313.24 1025.73,1302.43 1002.17,1302.15" id="Fill-348" fill="#C4577D"></path>
            <path d="M1002.17,1302.15 C983.577,1301.93 967.166,1308.34 960.483,1317.46 C960.939,1329.74 978.501,1339.63 1001.02,1339.9 C1019.61,1340.12 1036.03,1333.71 1042.71,1324.59 C1042.25,1312.31 1024.69,1302.42 1002.17,1302.15" id="Fill-349" fill="#E17395"></path>
            <path d="M1000.31,1293.03 C984.398,1292.84 970.848,1299.84 970.042,1308.65 C969.237,1317.47 981.483,1324.77 997.393,1324.96 C1013.3,1325.15 1026.85,1318.15 1027.66,1309.33 C1028.46,1300.52 1016.22,1293.22 1000.31,1293.03" id="Fill-350" fill="#C4577D"></path>
            <path d="M1000.31,1293.03 C988.784,1292.89 978.499,1296.53 973.398,1301.89 C975.074,1309.42 986.359,1315.26 1000.57,1315.43 C1012.09,1315.56 1022.38,1311.93 1027.48,1306.56 C1025.8,1299.04 1014.52,1293.2 1000.31,1293.03" id="Fill-351" fill="#E17395"></path>
            <path d="M1014.54,1272.53 C1006.67,1282.42 1006.25,1293.67 1013.56,1301 C1020.87,1308.34 985.062,1319.15 984.44,1299.79 C983.81,1280.2 1006.38,1271.01 1014.54,1272.53" id="Fill-352" fill="#C4577D"></path>
            <path d="M1013.03,1274.58 C1006.79,1283.74 1006.75,1293.72 1013.12,1300.54 C1004.62,1304.47 988.61,1304.96 988.196,1292.07 C988.117,1289.6 988.407,1287.29 988.99,1285.15 C995.603,1276.1 1007.72,1271.82 1013.79,1272.43 C1013.5,1273.15 1013.25,1273.87 1013.03,1274.58" id="Fill-353" fill="#E17395"></path>
            <path d="M853.066,1296.7 C876.625,1296.43 896.691,1306.79 897.883,1319.84 C899.076,1332.9 880.943,1343.71 857.384,1343.99 C833.825,1344.26 813.76,1333.9 812.569,1320.85 C811.376,1307.79 829.509,1296.98 853.066,1296.7" id="Fill-354" fill="#C4577D"></path>
            <path d="M853.066,1296.7 C871.657,1296.49 888.067,1302.89 894.75,1312.02 C894.295,1324.3 876.733,1334.19 854.208,1334.45 C835.619,1334.67 819.207,1328.27 812.524,1319.14 C812.979,1306.86 830.541,1296.97 853.066,1296.7" id="Fill-355" fill="#E17395"></path>
            <path d="M854.925,1287.58 C870.835,1287.4 884.386,1294.39 885.191,1303.21 C885.996,1312.03 873.751,1319.33 857.841,1319.51 C841.931,1319.7 828.38,1312.71 827.575,1303.89 C826.77,1295.07 839.015,1287.77 854.925,1287.58" id="Fill-356" fill="#C4577D"></path>
            <path d="M854.925,1287.58 C866.449,1287.45 876.734,1291.08 881.835,1296.45 C880.159,1303.97 868.874,1309.81 854.664,1309.98 C843.14,1310.12 832.855,1306.48 827.754,1301.12 C829.431,1293.59 840.715,1287.75 854.925,1287.58" id="Fill-357" fill="#E17395"></path>
            <path d="M840.688996,1267.09 C848.562,1276.98 848.98,1288.23 841.672,1295.56 C834.365,1302.89 870.171,1313.71 870.793,1294.35 C871.423,1274.75 848.858,1265.56 840.688996,1267.09" id="Fill-358" fill="#C4577D"></path>
            <path d="M842.201,1269.14 C848.439,1278.29 848.479,1288.27 842.116,1295.1 C850.615,1299.03 866.623,1299.52 867.037,1286.63 C867.116,1284.15 866.827,1281.85 866.244,1279.71 C859.63,1270.65 847.509,1266.38 841.447,1266.98 C841.736,1267.7 841.987,1268.42 842.201,1269.14" id="Fill-359" fill="#E17395"></path>
            <path d="M714.625,1276.11 C691.066,1275.83 671.002,1286.19 669.81,1299.25 C668.617,1312.3 686.749,1323.11 710.308,1323.39 C733.867,1323.67 753.932,1313.31 755.124,1300.25 C756.316,1287.2 738.185,1276.39 714.625,1276.11" id="Fill-360" fill="#C4577D"></path>
            <path d="M714.625,1276.11 C696.036,1275.89 679.626,1282.29 672.942,1291.42 C673.398,1303.7 690.96,1313.59 713.485,1313.86 C732.074,1314.08 748.486,1307.67 755.169,1298.55 C754.713,1286.27 737.152,1276.38 714.625,1276.11" id="Fill-361" fill="#E17395"></path>
            <path d="M712.768,1266.99 C696.858,1266.8 683.308,1273.8 682.502,1282.61 C681.697,1291.43 693.942,1298.73 709.852,1298.92 C725.762,1299.11 739.313,1292.11 740.118,1283.29 C740.923,1274.47 728.679,1267.18 712.768,1266.99" id="Fill-362" fill="#C4577D"></path>
            <path d="M712.767,1266.99 C701.244,1266.85 690.959,1270.49 685.858,1275.85 C687.534,1283.38 698.82,1289.22 713.028,1289.39 C724.554,1289.52 734.838,1285.89 739.939,1280.52 C738.262,1273 726.978,1267.16 712.767,1266.99" id="Fill-363" fill="#E17395"></path>
            <path d="M727.003,1246.49 C719.131,1256.38 718.713,1267.63 726.021,1274.96 C733.327,1282.29 697.521,1293.11 696.899,1273.75 C696.27,1254.16 718.835,1244.97 727.003,1246.49" id="Fill-364" fill="#C4577D"></path>
            <path d="M725.492,1248.54 C719.254,1257.7 719.213,1267.68 725.576,1274.5 C717.078,1278.43 701.069,1278.92 700.655,1266.03 C700.576,1263.56 700.866,1261.25 701.449,1259.11 C708.062,1250.06 720.183,1245.78 726.247,1246.39 C725.957,1247.11 725.707,1247.83 725.492,1248.54" id="Fill-365" fill="#E17395"></path>
            <path d="M624.119,1222.92 C647.679,1222.64 667.744,1233 668.936,1246.06 C670.129,1259.12 651.996,1269.92 628.437,1270.2 C604.878,1270.48 584.813,1260.12 583.622,1247.06 C582.429,1234.01 600.561,1223.2 624.119,1222.92" id="Fill-366" fill="#C4577D"></path>
            <path d="M624.119,1222.92 C642.71,1222.7 659.12,1229.11 665.803,1238.23 C665.347,1250.51 647.786,1260.41 625.261,1260.67 C606.672,1260.89 590.26,1254.49 583.578,1245.36 C584.032,1233.08 601.594,1223.19 624.119,1222.92" id="Fill-367" fill="#E17395"></path>
            <path d="M625.978,1213.8 C641.888,1213.61 655.439,1220.61 656.244,1229.43 C657.049,1238.24 644.804,1245.54 628.894,1245.73 C612.984,1245.92 599.433,1238.92 598.628,1230.11 C597.823,1221.29 610.068,1213.99 625.978,1213.8" id="Fill-368" fill="#C4577D"></path>
            <path d="M625.978,1213.8 C637.502,1213.67 647.787,1217.3 652.889,1222.66 C651.211,1230.19 639.926,1236.03 625.717,1236.2 C614.193,1236.33 603.909,1232.7 598.807,1227.34 C600.484,1219.81 611.768,1213.97 625.978,1213.8" id="Fill-369" fill="#E17395"></path>
            <path d="M611.741996,1193.31 C619.614,1203.19 620.033,1214.44 612.725,1221.78 C605.418,1229.11 641.224,1239.93 641.846,1220.56 C642.476,1200.97 619.91,1191.78 611.741996,1193.31" id="Fill-370" fill="#C4577D"></path>
            <path d="M613.254,1195.36 C619.492,1204.51 619.532,1214.49 613.169,1221.31 C621.668,1225.24 637.676,1225.73 638.09,1212.84 C638.169,1210.37 637.88,1208.06 637.297,1205.93 C630.683,1196.87 618.562,1192.59 612.5,1193.2 C612.789,1193.92 613.039,1194.64 613.254,1195.36" id="Fill-371" fill="#E17395"></path>
            <path d="M1371.72,1227.26 C1395.28,1226.98 1415.35,1237.34 1416.54,1250.4 C1417.73,1263.46 1399.6,1274.26 1376.04,1274.54 C1352.48,1274.82 1332.42,1264.46 1331.23,1251.4 C1330.03,1238.35 1348.17,1227.54 1371.72,1227.26" id="Fill-372" fill="#C4577D"></path>
            <path d="M1371.72,1227.26 C1390.31,1227.04 1406.72,1233.45 1413.41,1242.57 C1412.95,1254.85 1395.39,1264.75 1372.86,1265.01 C1354.28,1265.23 1337.86,1258.83 1331.18,1249.7 C1331.64,1237.42 1349.2,1227.53 1371.72,1227.26" id="Fill-373" fill="#E17395"></path>
            <path d="M1373.58,1218.14 C1389.49,1217.95 1403.04,1224.95 1403.85,1233.77 C1404.65,1242.58 1392.41,1249.88 1376.5,1250.07 C1360.59,1250.26 1347.04,1243.26 1346.23,1234.45 C1345.43,1225.63 1357.67,1218.33 1373.58,1218.14" id="Fill-374" fill="#C4577D"></path>
            <path d="M1373.58,1218.14 C1385.11,1218.01 1395.39,1221.64 1400.49,1227 C1398.82,1234.53 1387.53,1240.37 1373.32,1240.54 C1361.8,1240.67 1351.51,1237.04 1346.41,1231.68 C1348.09,1224.15 1359.37,1218.31 1373.58,1218.14" id="Fill-375" fill="#E17395"></path>
            <path d="M1359.35,1197.65 C1367.22,1207.54 1367.64,1218.79 1360.33,1226.12 C1353.02,1233.45 1388.83,1244.27 1389.45,1224.9 C1390.08,1205.31 1367.51,1196.12 1359.35,1197.65" id="Fill-376" fill="#C4577D"></path>
            <path d="M1360.86,1199.7 C1367.1,1208.85 1367.14,1218.83 1360.77,1225.65 C1369.27,1229.58 1385.28,1230.07 1385.69,1217.18 C1385.77,1214.71 1385.48,1212.41 1384.9,1210.27 C1378.29,1201.21 1366.17,1196.94 1360.1,1197.54 C1360.39,1198.26 1360.64,1198.98 1360.86,1199.7" id="Fill-377" fill="#E17395"></path>
            <path d="M1272.35,1278.28 C1248.79,1278 1228.72,1288.36 1227.53,1301.42 C1226.34,1314.47 1244.47,1325.28 1268.03,1325.56 C1291.59,1325.84 1311.65,1315.48 1312.84,1302.42 C1314.04,1289.37 1295.9,1278.56 1272.35,1278.28" id="Fill-378" fill="#C4577D"></path>
            <path d="M1272.35,1278.28 C1253.76,1278.06 1237.35,1284.47 1230.66,1293.59 C1231.12,1305.87 1248.68,1315.76 1271.2,1316.03 C1289.79,1316.25 1306.21,1309.84 1312.89,1300.72 C1312.43,1288.44 1294.87,1278.54 1272.35,1278.28" id="Fill-379" fill="#E17395"></path>
            <path d="M1270.49,1269.16 C1254.58,1268.97 1241.03,1275.97 1240.22,1284.78 C1239.42,1293.6 1251.66,1300.9 1267.57,1301.09 C1283.48,1301.28 1297.03,1294.28 1297.84,1285.46 C1298.64,1276.64 1286.4,1269.35 1270.49,1269.16" id="Fill-380" fill="#C4577D"></path>
            <path d="M1270.49,1269.16 C1258.96,1269.02 1248.68,1272.66 1243.58,1278.02 C1245.25,1285.55 1256.54,1291.39 1270.75,1291.56 C1282.27,1291.69 1292.56,1288.06 1297.66,1282.69 C1295.98,1275.17 1284.7,1269.32 1270.49,1269.16" id="Fill-381" fill="#E17395"></path>
            <path d="M1284.72,1248.66 C1276.85,1258.55 1276.43,1269.8 1283.74,1277.13 C1291.05,1284.47 1255.24,1295.28 1254.62,1275.92 C1253.99,1256.33 1276.56,1247.14 1284.72,1248.66" id="Fill-382" fill="#C4577D"></path>
            <path d="M1283.21,1250.71 C1276.97,1259.87 1276.93,1269.85 1283.3,1276.67 C1274.8,1280.6 1258.79,1281.09 1258.37,1268.2 C1258.3,1265.73 1258.59,1263.42 1259.17,1261.28 C1265.78,1252.23 1277.9,1247.95 1283.97,1248.56 C1283.68,1249.28 1283.43,1250 1283.21,1250.71" id="Fill-383" fill="#E17395"></path>
            <path d="M1136.27,1292.36 C1159.83,1292.09 1179.89,1302.45 1181.08,1315.5 C1182.28,1328.56 1164.14,1339.37 1140.58,1339.65 C1117.03,1339.92 1096.96,1329.56 1095.77,1316.51 C1094.58,1303.45 1112.71,1292.64 1136.27,1292.36" id="Fill-384" fill="#C4577D"></path>
            <path d="M1136.27,1292.36 C1154.86,1292.15 1171.27,1298.55 1177.95,1307.68 C1177.49,1319.96 1159.93,1329.85 1137.41,1330.11 C1118.82,1330.33 1102.41,1323.93 1095.72,1314.8 C1096.18,1302.52 1113.74,1292.63 1136.27,1292.36" id="Fill-385" fill="#E17395"></path>
            <path d="M1138.13,1283.24 C1154.03,1283.06 1167.58,1290.05 1168.39,1298.87 C1169.2,1307.69 1156.95,1314.99 1141.04,1315.17 C1125.13,1315.36 1111.58,1308.36 1110.77,1299.55 C1109.97,1290.73 1122.22,1283.43 1138.13,1283.24" id="Fill-386" fill="#C4577D"></path>
            <path d="M1138.13,1283.24 C1149.65,1283.11 1159.93,1286.74 1165.04,1292.11 C1163.36,1299.63 1152.07,1305.47 1137.86,1305.64 C1126.34,1305.78 1116.05,1302.14 1110.95,1296.78 C1112.63,1289.25 1123.91,1283.41 1138.13,1283.24" id="Fill-387" fill="#E17395"></path>
            <path d="M1123.89,1262.75 C1131.76,1272.64 1132.18,1283.89 1124.87,1291.22 C1117.57,1298.55 1153.37,1309.37 1153.99,1290.01 C1154.62,1270.41 1132.06,1261.22 1123.89,1262.75" id="Fill-388" fill="#C4577D"></path>
            <path d="M1125.4,1264.8 C1131.64,1273.95 1131.68,1283.93 1125.32,1290.76 C1133.81,1294.69 1149.82,1295.18 1150.24,1282.28 C1150.32,1279.81 1150.03,1277.51 1149.44,1275.37 C1142.83,1266.31 1130.71,1262.04 1124.65,1262.64 C1124.94,1263.36 1125.19,1264.08 1125.4,1264.8" id="Fill-389" fill="#E17395"></path>
            <path d="M778.948,1269.17 C767.367,1261.37 764.666,1247.38 778.3,1246.31 C791.935,1245.25 792.935,1278.6 778.948,1269.17" id="Fill-390" fill="#452721"></path>
            <path d="M674.322,1509.62 C677.587,1502.46 686.56,1496.62 688.412,1504.09 C690.262,1511.57 670.377,1518.26 674.322,1509.62" id="Fill-397" fill="#CDAC71"></path>
            <path d="M895.403,1529.97 C901.837,1523.6 913.885,1520.96 912.83,1529.77 C911.776,1538.57 887.632,1537.67 895.403,1529.97" id="Fill-398" fill="#CDAC71"></path>
            <path d="M1143.17,1531.56 C1137.81,1526.45 1135.38,1516.67 1142.6,1517.32 C1149.82,1517.98 1149.63,1537.73 1143.17,1531.56" id="Fill-399" fill="#CDAC71"></path>
            <path d="M1370.56,1499.38 C1359.83,1497.6 1348.78,1487.73 1358.09,1482.56 C1367.4,1477.39 1383.52,1501.53 1370.56,1499.38" id="Fill-400" fill="#CDAC71"></path>
            <path d="M1369.31,1572.75 C1359.86,1567.38 1352.89,1554.3 1363.42,1552.66 C1373.94,1551.02 1380.74,1579.24 1369.31,1572.75" id="Fill-401" fill="#E98FA8"></path>
        </g>
    </g>
</svg>